<?xml version="1.0" encoding="utf-8"?>
<!-- Generator: Adobe Illustrator 26.4.1, SVG Export Plug-In . SVG Version: 6.00 Build 0)  -->
<svg version="1.1" id="Layer_1" xmlns="http://www.w3.org/2000/svg" xmlns:xlink="http://www.w3.org/1999/xlink" x="0px" y="0px"
	 width="595.3px" height="841.9px" viewBox="0 0 595.3 841.9" style="enable-background:new 0 0 595.3 841.9;" xml:space="preserve"
	>
<style type="text/css">
	.st0{fill:url(#SVGID_1_);}
	.st1{fill:url(#SVGID_00000057123089124642571680000013705106443576685239_);}
	.st2{fill:url(#SVGID_00000040554074994350749420000013710650486912554647_);}
	.st3{fill:url(#SVGID_00000179641996760435987430000009788469681599380108_);}
	.st4{fill:url(#SVGID_00000162312860534979905330000004222347938991489469_);}
	.st5{fill:url(#SVGID_00000114072516594843991010000018235284679361462203_);}
	.st6{fill:url(#SVGID_00000168817264918694682930000015540311472531956884_);}
	.st7{fill:url(#SVGID_00000053539353299203838150000016061916953583622070_);}
	.st8{fill:#FFFFFF;}
	.st9{fill:#233069;}
	.st10{fill:url(#SVGID_00000163751873774204807850000003357806378136566181_);}
	.st11{fill:url(#SVGID_00000143592414680129725610000000660425595525502364_);}
	.st12{fill:url(#SVGID_00000134930517009998752900000015713855260526207423_);}
	.st13{fill:url(#SVGID_00000038406984721328348380000000318620953426246845_);}
</style>
<g>
	<g>
		
			<linearGradient id="SVGID_1_" gradientUnits="userSpaceOnUse" x1="119.9509" y1="36.4299" x2="79.7708" y2="36.4299" gradientTransform="matrix(1 0 0 -1 0 458)">
			<stop  offset="0" style="stop-color:#233069"/>
			<stop  offset="1" style="stop-color:#921A1D"/>
		</linearGradient>
		<path class="st0" d="M97.2,384.5c2.5,1.2,4.6,2.7,6.4,4.5c4.2,4.1,6.6,9.1,7.6,14.8c0.5,2.6,0.9,5.2,0.1,7.7
			c-0.4,1.3-0.3,2.5,0.3,3.7c1.9,3.1,3.8,6.2,5.7,9.2c0.9,1.4,0.9,1.5-0.6,2.3c-1.1,0.5-2.2,1-3.2,1.5s-1.2,0.9-0.9,2
			c0.2,0.6,0.3,1.3,0.6,1.9c0.3,0.9,0.1,1.3-0.7,1.7c-1,0.4-1.2,1.1-0.7,2.1c0.2,0.4,0.4,0.7,0.7,1c0.5,0.5,0.5,0.8,0,1.3
			c-1.1,1.1-1.4,2.5-1.1,4c0.2,0.6,0.3,1.2,0.3,1.9c0.3,2.1-0.6,3.6-2.7,4.1c-0.8,0.2-1.7,0.2-2.5,0.4c-2.8,0.4-5.6,0.8-8.3,1.4
			c-2.1,0.5-3.5,1.9-3.7,4.1c-0.3,3-0.4,6-0.6,8.9c0,0.7,0.3,1.1,1.1,1.2c1,0.1,1.4-0.3,1.5-1.5c0.1-2.1,0.1-4.1,0.2-6.2
			c0.1-2.8,1.3-4.4,4.2-4.7c2.5-0.3,5-0.5,7.5-0.8c3.4-0.3,5.5-2.3,5.9-5.7c0.1-1-0.1-2-0.2-3c-0.1-0.9-0.2-1.8,0.5-2.6
			c1.1-1.2,1.7-2.6,0.6-3.8c0.3-1.1,0.6-1.9,0.7-2.7c0.1-0.7-0.1-1.5-0.3-2.2c-0.1-0.6,0-1,0.6-1.2c0.7-0.3,1.4-0.7,2-1
			c2.8-1.7,3.2-3,1.4-5.8s-3.6-5.7-5.4-8.5c-0.6-1-0.7-1.9-0.3-3c0.3-0.8,0.5-1.7,0.5-2.5c-0.2-2.2-0.3-4.4-0.8-6.6
			c-2.3-10.5-8.3-17.9-18.4-21.7c-0.3-0.1-0.7-0.2-1.2-0.3v1.2c0,3,0,6,0,9c0,1.1-0.2,1.8-1.2,2.4c-2,1.4-2.2,4.6-0.6,6.4
			c1.7,1.9,4.7,2,6.5,0.1c1.7-1.8,1.6-5-0.4-6.4c-1.1-0.8-1.4-1.6-1.3-2.8c0.1-1.5,0-3,0-4.5C97.1,385.4,97.1,385,97.2,384.5
			L97.2,384.5z M82.4,378.9c0,0.4-0.1,0.7-0.1,0.9c0,6.6,0,13.1,0,19.7c0,2.9,1.9,4.6,4.8,4.4c1.4-0.1,1.9,0.2,2.2,1.6
			c0.1,0.5,0.2,1.1,0.2,1.7c0,1.7,0,3.4,0,5c0,0.6-0.2,0.9-0.7,1.2c-1.9,1-2.7,3.1-2.2,5.1c0.5,1.9,2.2,3.2,4.3,3.2s3.7-1.3,4.2-3.3
			s-0.3-4-2.2-5c-0.6-0.3-0.7-0.7-0.7-1.3c0-1.8,0.1-3.5,0-5.2c-0.1-1.2-0.3-2.4-0.8-3.5c-0.7-1.8-2.4-2.6-4.2-2.4
			c-1.7,0.3-2.2-0.2-2.2-1.9c0-6.3,0-12.7,0-19c0-0.4,0-0.8-0.1-1.2L82.4,378.9L82.4,378.9z"/>
		
			<linearGradient id="SVGID_00000101087950872036392980000010213061596788176545_" gradientUnits="userSpaceOnUse" x1="119.9509" y1="35.7799" x2="79.7708" y2="35.7799" gradientTransform="matrix(1 0 0 -1 0 458)">
			<stop  offset="0" style="stop-color:#233069"/>
			<stop  offset="1" style="stop-color:#921A1D"/>
		</linearGradient>
		<path style="fill:url(#SVGID_00000101087950872036392980000010213061596788176545_);" d="M97.2,384.5c0,0.5-0.1,0.9-0.1,1.2
			c0,1.5,0.1,3,0,4.5c-0.1,1.2,0.2,2,1.3,2.8c2,1.4,2.1,4.6,0.4,6.4c-1.8,1.9-4.8,1.8-6.5-0.1c-1.7-1.8-1.5-5,0.6-6.4
			c0.9-0.7,1.2-1.3,1.2-2.4c-0.1-3,0-6,0-9v-1.2c0.5,0.1,0.9,0.2,1.2,0.3c10.2,3.8,16.1,11.3,18.4,21.7c0.5,2.2,0.6,4.4,0.8,6.6
			c0.1,0.8-0.2,1.7-0.5,2.5c-0.4,1.1-0.3,2,0.3,3c1.8,2.8,3.6,5.7,5.4,8.5s1.4,4.1-1.4,5.8c-0.7,0.4-1.3,0.8-2,1
			c-0.6,0.2-0.7,0.6-0.6,1.2c0.2,0.7,0.4,1.5,0.3,2.2c-0.1,0.8-0.4,1.6-0.7,2.7c1.1,1.2,0.5,2.5-0.6,3.8c-0.7,0.8-0.6,1.7-0.5,2.6
			c0.1,1,0.3,2,0.2,3c-0.3,3.4-2.4,5.4-5.9,5.7c-2.5,0.2-5,0.4-7.5,0.8c-2.8,0.4-4.1,1.9-4.2,4.7c-0.1,2.1-0.1,4.1-0.2,6.2
			c0,1.2-0.5,1.6-1.5,1.5c-0.7,0-1.1-0.4-1.1-1.2c0.2-3,0.3-6,0.6-8.9c0.2-2.2,1.6-3.6,3.7-4.1c2.7-0.6,5.5-0.9,8.3-1.4
			c0.8-0.1,1.7-0.2,2.5-0.4c2.1-0.5,3-2,2.7-4.1c-0.1-0.6-0.2-1.2-0.3-1.9c-0.4-1.5,0-2.9,1.1-4c0.5-0.5,0.5-0.9,0-1.3
			c-0.3-0.3-0.5-0.7-0.7-1c-0.5-1-0.3-1.7,0.7-2.1c0.8-0.4,1.1-0.8,0.7-1.7c-0.2-0.6-0.4-1.3-0.6-1.9c-0.3-1.1-0.1-1.5,0.9-2
			c1.1-0.5,2.2-1,3.2-1.5c1.5-0.8,1.5-0.9,0.6-2.3c-1.9-3.1-3.8-6.1-5.7-9.2c-0.7-1.1-0.8-2.3-0.3-3.7c0.8-2.6,0.4-5.1-0.1-7.7
			c-1.1-5.7-3.4-10.7-7.6-14.8C101.8,387.2,99.7,385.7,97.2,384.5L97.2,384.5z M97.2,396.3c0-0.9-0.8-1.7-1.7-1.6
			c-0.8,0-1.6,0.8-1.6,1.6s0.8,1.7,1.7,1.7C96.4,398,97.2,397.2,97.2,396.3L97.2,396.3z"/>
		
			<linearGradient id="SVGID_00000169533261066066281620000006885907622806901937_" gradientUnits="userSpaceOnUse" x1="119.9509" y1="57.6872" x2="79.7708" y2="57.6872" gradientTransform="matrix(1 0 0 -1 0 458)">
			<stop  offset="0" style="stop-color:#233069"/>
			<stop  offset="1" style="stop-color:#921A1D"/>
		</linearGradient>
		<path style="fill:url(#SVGID_00000169533261066066281620000006885907622806901937_);" d="M82.4,378.9h2.7c0,0.4,0.1,0.8,0.1,1.2
			c0,6.3,0,12.7,0,19c0,1.7,0.5,2.2,2.2,1.9c1.8-0.3,3.5,0.6,4.2,2.4c0.4,1.1,0.7,2.3,0.8,3.5c0.1,1.7,0.1,3.5,0,5.2
			c0,0.6,0.2,1,0.7,1.3c1.9,1,2.7,3,2.2,5s-2.1,3.3-4.2,3.3s-3.8-1.2-4.3-3.2c-0.6-2,0.3-4.1,2.2-5.1c0.5-0.3,0.7-0.6,0.7-1.2
			c0-1.7,0-3.4,0-5c0-0.6-0.1-1.1-0.2-1.7c-0.3-1.4-0.8-1.7-2.2-1.6c-2.9,0.3-4.8-1.5-4.8-4.4c0-6.6,0-13.1,0-19.7
			C82.3,379.6,82.4,379.3,82.4,378.9L82.4,378.9z M91,415.7c-0.9,0-1.6,0.8-1.6,1.7s0.8,1.6,1.7,1.5c0.8,0,1.6-0.8,1.6-1.6
			C92.6,416.4,91.8,415.7,91,415.7z"/>
		
			<linearGradient id="SVGID_00000097479994896952692670000015979823555596028606_" gradientUnits="userSpaceOnUse" x1="119.9509" y1="61.6415" x2="79.7708" y2="61.6415" gradientTransform="matrix(1 0 0 -1 0 458)">
			<stop  offset="0" style="stop-color:#233069"/>
			<stop  offset="1" style="stop-color:#921A1D"/>
		</linearGradient>
		<path style="fill:url(#SVGID_00000097479994896952692670000015979823555596028606_);" d="M97.2,396.3c0,0.9-0.8,1.7-1.6,1.7
			s-1.7-0.8-1.7-1.7c0-0.8,0.8-1.6,1.6-1.6C96.3,394.6,97.2,395.4,97.2,396.3L97.2,396.3z"/>
		
			<linearGradient id="SVGID_00000095330550401162156640000000176623706649981571_" gradientUnits="userSpaceOnUse" x1="119.9509" y1="40.6872" x2="79.7708" y2="40.6872" gradientTransform="matrix(1 0 0 -1 0 458)">
			<stop  offset="0" style="stop-color:#233069"/>
			<stop  offset="1" style="stop-color:#921A1D"/>
		</linearGradient>
		<path style="fill:url(#SVGID_00000095330550401162156640000000176623706649981571_);" d="M91,415.7c0.9,0,1.7,0.8,1.7,1.6
			s-0.7,1.6-1.6,1.6s-1.7-0.7-1.7-1.5C89.3,416.5,90.1,415.7,91,415.7z"/>
	</g>
	<g>
		<g>
			
				<linearGradient id="SVGID_00000096753066228201029920000008800686512945791154_" gradientUnits="userSpaceOnUse" x1="19.3624" y1="27.8889" x2="78.1523" y2="29.169" gradientTransform="matrix(1 0 0 -1 0 458)">
				<stop  offset="0" style="stop-color:#233069"/>
				<stop  offset="1" style="stop-color:#921A1D"/>
			</linearGradient>
			<path style="fill:url(#SVGID_00000096753066228201029920000008800686512945791154_);" d="M37.6,402.1
				c-4.1,13.9-4.3,27.8-1.1,41.7c1.2,5.1,5.1,9.1,10.1,10.5l0.2,0.1c3.3,0.9,6.3,2.4,9.1,4.4l2.6,2c1.4,1.1,3.2,1.7,5,1.7
				c0.1,0,0.2,0,0.3,0l1.8-0.2c0.9-0.1,1.7-0.5,2.4-1.2c0.6-0.5,1.4-0.8,2.2-0.6l6.4,3.8c0.6,0.1,1.1-0.3,1.1-0.9V394H48.5
				C43.4,394,39,397.3,37.6,402.1L37.6,402.1z"/>
			
				<linearGradient id="SVGID_00000117657213490485645240000014800695103867522969_" gradientUnits="userSpaceOnUse" x1="19.231" y1="34.1674" x2="78.011" y2="35.4375" gradientTransform="matrix(1 0 0 -1 0 458)">
				<stop  offset="0" style="stop-color:#233069"/>
				<stop  offset="1" style="stop-color:#921A1D"/>
			</linearGradient>
			<path style="fill:url(#SVGID_00000117657213490485645240000014800695103867522969_);" d="M37,395.2c-11.8,0-16.3,3-16.3,8.3
				l1.5,40.5c0,8.9,13,7.7,13,7.7C28.2,431.9,29.2,409.8,37,395.2z"/>
			
				<linearGradient id="SVGID_00000089545387270348886010000016629738077517354672_" gradientUnits="userSpaceOnUse" x1="18.4009" y1="72.0041" x2="77.1909" y2="73.284" gradientTransform="matrix(1 0 0 -1 0 458)">
				<stop  offset="0" style="stop-color:#233069"/>
				<stop  offset="1" style="stop-color:#921A1D"/>
			</linearGradient>
			<path style="fill:url(#SVGID_00000089545387270348886010000016629738077517354672_);" d="M72.9,378.2c-5,0.5-4.1,0-15.9,3.1
				c-12.9,3.4-14.6,10-14.6,10h35.3V381C77.7,379.3,75.5,378,72.9,378.2L72.9,378.2z"/>
		</g>
		<circle class="st8" cx="62.4" cy="410.5" r="8.2"/>
		<circle class="st9" cx="62.4" cy="410.5" r="4.3"/>
	</g>
</g>
<g>
	<path class="st9" d="M171.4,446.8c-3,0-4.2-1.2-6.3-3.7L144,418.6v28.2h-10.7v-43.9h7.8c3.4,0,4.8,1,6.7,3.2l19.3,22.3v-25.6h10.7
		v39.4c0,3-1.4,4.5-4.1,4.5L171.4,446.8L171.4,446.8z"/>
	<path class="st9" d="M214.6,446.8l-3.4-6.8H192l4.7-9.4h9.9l-7-14.1l-15,30.2h-12.2l20.9-40.7c1.1-2.2,2.8-3.2,4.9-3.2h2.5
		c2.1,0,3.8,1.1,4.9,3.2l20.9,40.7L214.6,446.8L214.6,446.8z"/>
	<path class="st9" d="M242.4,446.8c-12.5,0-21.7-8.8-21.7-22c0-13.1,9.1-22,21.7-22h5.9c12.5,0,21.6,8.8,21.6,22
		c0,13.1-9.1,22-21.6,22H242.4z M249.1,435.4c5.7,0,9.9-4.3,9.9-10.6s-4.2-10.7-9.9-10.7h-7.4c-5.7,0-10,4.3-10,10.7
		c0,6.3,4.2,10.6,10,10.6H249.1z"/>
	<g>
		
			<linearGradient id="SVGID_00000029762508328342827670000006686522796223691178_" gradientUnits="userSpaceOnUse" x1="143.6009" y1="-560.9228" x2="498.631" y2="-560.9228" gradientTransform="matrix(1 0 0 -1 116.18 -136.06)">
			<stop  offset="0" style="stop-color:#233069"/>
			<stop  offset="1" style="stop-color:#921A1D"/>
		</linearGradient>
		<path style="fill:url(#SVGID_00000029762508328342827670000006686522796223691178_);" d="M494.9,402.9h-4.6
			c-2.6,0-4.3,1.3-5.2,4.2l-7.4,26.3l-7.4-26.3c-0.8-2.9-2.7-4.2-5.2-4.2h-4.6c-2.8,0-4.7,1.3-5.4,5l-5.9,27.5h-33.5v-21.3H444
			v-11.3h-33.6h-5.8h-60.3h-0.2h-28v31.5l-14.5-28.2c-1.1-2.2-2.8-3.2-4.9-3.2h-2.5c-2.1,0-3.8,1.1-4.9,3.2l-20.9,40.7h12.2l15-30.2
			l7,14.1h-9.9l-4.7,9.4h19.2l3.4,6.8h5.6h6.4h4.6v-32.6h17h0.2c3,0,5.2,2.2,5.2,5.6s-2.1,5.6-5.2,5.6h-14.1v10.3h9.7l8.2,11.1h14.4
			L352.3,434c5.1-2.6,8.4-7.9,8.4-14.6c0-1.8-0.2-3.5-0.7-5.1h14v32.6h11v-32.6h19.8v32.6h42.1h7.8h3.1l6.1-28.7l7.1,24.5
			c0.8,2.8,2.5,4.2,5.2,4.2h3.3c2.6,0,4.4-1.3,5.2-4.2l7.1-24l6.1,28.2h11l-8.4-38.9C499.6,404.2,497.7,402.8,494.9,402.9
			L494.9,402.9z"/>
		
			<linearGradient id="SVGID_00000036974346158516766640000018238757112724939660_" gradientUnits="userSpaceOnUse" x1="143.6009" y1="-560.7728" x2="498.631" y2="-560.7728" gradientTransform="matrix(1 0 0 -1 116.18 -136.06)">
			<stop  offset="0" style="stop-color:#233069"/>
			<stop  offset="1" style="stop-color:#921A1D"/>
		</linearGradient>
		
			<rect x="419.4" y="420" style="fill:url(#SVGID_00000036974346158516766640000018238757112724939660_);" width="24.2" height="9.4"/>
		
			<linearGradient id="SVGID_00000150780567831805520020000015493009419234027138_" gradientUnits="userSpaceOnUse" x1="143.6009" y1="-560.9227" x2="498.631" y2="-560.9227" gradientTransform="matrix(1 0 0 -1 116.18 -136.06)">
			<stop  offset="0" style="stop-color:#233069"/>
			<stop  offset="1" style="stop-color:#921A1D"/>
		</linearGradient>
		
			<rect x="510.9" y="402.9" style="fill:url(#SVGID_00000150780567831805520020000015493009419234027138_);" width="11" height="43.9"/>
		
			<linearGradient id="SVGID_00000176002444671070420730000015516316742425344395_" gradientUnits="userSpaceOnUse" x1="224.1508" y1="-560.9227" x2="457.0208" y2="-560.9227" gradientTransform="matrix(1 0 0 -1 116.18 -136.06)">
			<stop  offset="0" style="stop-color:#233069"/>
			<stop  offset="1" style="stop-color:#921A1D"/>
		</linearGradient>
		<path style="fill:url(#SVGID_00000176002444671070420730000015516316742425344395_);" d="M517.7,435.4h1.7H561
			c1.6,0,2.7-1.1,2.7-3s-1.1-3-2.7-3h-18c-7.6,0-13.1-5.4-13.1-13.2c0-8,5.5-13.3,13.1-13.3h31.1v11.3h-30.6c-1.6,0-2.7,1-2.7,2.9
			s1.1,3,2.7,3h18c7.7,0,13.2,5.5,13.2,13.3c0,8.1-5.5,13.4-13.2,13.4h-39h-1.6h-0.6c-3,0-4.2-1.2-6.3-3.7L517.7,435.4L517.7,435.4z
			"/>
	</g>
</g>
</svg>
