<?xml version="1.0" encoding="utf-8"?>
<!-- Generator: Adobe Illustrator 26.4.1, SVG Export Plug-In . SVG Version: 6.00 Build 0)  -->
<svg version="1.1" id="Layer_1" xmlns="http://www.w3.org/2000/svg" xmlns:xlink="http://www.w3.org/1999/xlink" x="0px" y="0px"
	 width="595.3px" height="841.9px" viewBox="0 0 595.3 841.9" style="enable-background:new 0 0 595.3 841.9;" xml:space="preserve"
	>
<style type="text/css">
	.st0{fill:url(#SVGID_1_);}
	.st1{fill:url(#SVGID_00000018218249617391154270000013477907922343286932_);}
	.st2{fill:url(#SVGID_00000077324189293114606900000017332594571026842263_);}
	.st3{fill:url(#SVGID_00000106846598944992207430000011551308029542193841_);}
	.st4{fill:url(#SVGID_00000041987130390390021510000008654147858867712932_);}
	.st5{fill:url(#SVGID_00000178169004217274695220000015827700141752742836_);}
	.st6{fill:url(#SVGID_00000183249335556688784810000014045212494316458922_);}
	.st7{fill:url(#SVGID_00000005241233165685348480000014077300632279454863_);}
	.st8{fill:#FFFFFF;}
	.st9{fill:#233069;}
	.st10{fill:url(#SVGID_00000044868825091844883760000002462187115603475640_);}
	.st11{fill:url(#SVGID_00000160190586833401411840000015553302837149354415_);}
	.st12{fill:url(#SVGID_00000036938033733320129570000008819876112782122399_);}
	.st13{fill:url(#SVGID_00000140711782028916569310000004728293646429028532_);}
</style>
<g>
	<g>
		
			<linearGradient id="SVGID_1_" gradientUnits="userSpaceOnUse" x1="347.0406" y1="53.9799" x2="306.8607" y2="53.9799" gradientTransform="matrix(1 0 0 -1 0 458)">
			<stop  offset="0" style="stop-color:#233069"/>
			<stop  offset="1" style="stop-color:#921A1D"/>
		</linearGradient>
		<path class="st0" d="M324.3,367c2.5,1.2,4.6,2.7,6.4,4.5c4.2,4.1,6.6,9.1,7.6,14.8c0.5,2.6,0.9,5.1,0.1,7.7
			c-0.4,1.3-0.3,2.5,0.3,3.6c1.9,3.1,3.8,6.2,5.7,9.2c0.9,1.4,0.9,1.5-0.6,2.3c-1.1,0.5-2.2,1-3.2,1.5s-1.2,0.9-0.9,2
			c0.2,0.6,0.3,1.3,0.6,1.9c0.3,0.9,0.1,1.3-0.7,1.7c-1,0.4-1.2,1.1-0.7,2.1c0.2,0.4,0.4,0.7,0.7,1c0.5,0.5,0.5,0.8,0,1.3
			c-1.1,1.1-1.4,2.5-1.1,4c0.2,0.6,0.3,1.2,0.3,1.9c0.3,2.1-0.6,3.6-2.7,4.1c-0.8,0.2-1.7,0.2-2.5,0.4c-2.8,0.4-5.6,0.8-8.3,1.4
			c-2.1,0.5-3.5,1.9-3.7,4.1c-0.3,3-0.4,6-0.6,8.9c0,0.7,0.3,1.1,1.1,1.2c1,0.1,1.4-0.3,1.5-1.5c0.1-2.1,0.1-4.1,0.2-6.2
			c0.1-2.8,1.3-4.4,4.2-4.7c2.5-0.3,5-0.5,7.5-0.8c3.4-0.3,5.5-2.3,5.9-5.7c0.1-1-0.1-2-0.2-3c-0.1-0.9-0.2-1.8,0.5-2.6
			c1.1-1.2,1.7-2.6,0.6-3.8c0.3-1.1,0.6-1.9,0.7-2.7c0.1-0.7-0.1-1.5-0.3-2.1c-0.1-0.6,0-1,0.6-1.2c0.7-0.3,1.4-0.7,2-1
			c2.8-1.7,3.2-3,1.4-5.8c-1.8-2.9-3.6-5.7-5.4-8.5c-0.6-1-0.7-1.9-0.3-3c0.3-0.8,0.5-1.7,0.5-2.5c-0.2-2.2-0.3-4.4-0.8-6.6
			c-2.3-10.5-8.3-17.9-18.4-21.7c-0.3-0.1-0.7-0.2-1.2-0.4v1.2c0,3,0,6,0,9c0,1.1-0.2,1.8-1.2,2.4c-2,1.4-2.2,4.6-0.6,6.4
			c1.7,1.9,4.7,2,6.5,0.1c1.7-1.8,1.6-5-0.4-6.4c-1.1-0.8-1.4-1.6-1.3-2.8c0.1-1.5,0-3,0-4.5C324.2,367.9,324.2,367.6,324.3,367
			L324.3,367z M309.5,361.5c0,0.4-0.1,0.7-0.1,0.9c0,6.6,0,13.1,0,19.7c0,2.9,1.9,4.6,4.8,4.4c1.4-0.1,1.9,0.2,2.2,1.6
			c0.1,0.5,0.2,1.1,0.2,1.7c0,1.7,0,3.4,0,5c0,0.6-0.2,0.9-0.7,1.2c-1.9,1-2.7,3.1-2.2,5.1c0.5,1.9,2.2,3.2,4.3,3.2
			c2.1,0,3.7-1.3,4.2-3.3s-0.3-4-2.2-5c-0.6-0.3-0.7-0.7-0.7-1.3c0-1.8,0.1-3.5,0-5.2c-0.1-1.2-0.3-2.4-0.8-3.5
			c-0.7-1.8-2.4-2.6-4.2-2.4c-1.7,0.3-2.2-0.2-2.2-1.9c0-6.4,0-12.7,0-19c0-0.4,0-0.8-0.1-1.2H309.5L309.5,361.5z"/>
		
			<linearGradient id="SVGID_00000020387018672990879640000016799690434417679793_" gradientUnits="userSpaceOnUse" x1="347.0406" y1="53.331" x2="306.8607" y2="53.331" gradientTransform="matrix(1 0 0 -1 0 458)">
			<stop  offset="0" style="stop-color:#233069"/>
			<stop  offset="1" style="stop-color:#921A1D"/>
		</linearGradient>
		<path style="fill:url(#SVGID_00000020387018672990879640000016799690434417679793_);" d="M324.3,367c0,0.5-0.1,0.9-0.1,1.2
			c0,1.5,0.1,3,0,4.5c-0.1,1.2,0.2,2,1.3,2.8c2,1.4,2.1,4.6,0.4,6.4c-1.8,1.9-4.8,1.8-6.5-0.1c-1.7-1.9-1.5-5,0.6-6.4
			c0.9-0.6,1.2-1.3,1.2-2.4c-0.1-3,0-6,0-9v-1.2c0.5,0.1,0.9,0.2,1.2,0.4c10.2,3.8,16.1,11.3,18.4,21.7c0.5,2.1,0.6,4.4,0.8,6.6
			c0.1,0.8-0.2,1.7-0.5,2.5c-0.4,1.1-0.3,2,0.3,3c1.8,2.8,3.6,5.7,5.4,8.5c1.8,2.8,1.4,4.1-1.4,5.8c-0.7,0.4-1.3,0.8-2,1
			c-0.6,0.2-0.7,0.6-0.6,1.2c0.2,0.7,0.4,1.5,0.3,2.1c-0.1,0.8-0.4,1.6-0.7,2.7c1.1,1.2,0.5,2.5-0.6,3.8c-0.7,0.8-0.6,1.7-0.5,2.6
			c0.1,1,0.3,2,0.2,3c-0.3,3.4-2.4,5.4-5.9,5.7c-2.5,0.2-5,0.4-7.5,0.8c-2.8,0.4-4.1,1.9-4.2,4.7c-0.1,2.1-0.1,4.1-0.2,6.2
			c0,1.1-0.5,1.6-1.5,1.5c-0.7,0-1.1-0.4-1.1-1.2c0.2-3,0.3-6,0.6-8.9c0.2-2.2,1.6-3.6,3.7-4.1c2.7-0.6,5.5-0.9,8.3-1.4
			c0.8-0.1,1.7-0.2,2.5-0.4c2.1-0.5,3-2,2.7-4.1c-0.1-0.6-0.2-1.2-0.3-1.9c-0.4-1.5,0-2.9,1.1-4c0.5-0.5,0.5-0.9,0-1.3
			c-0.3-0.3-0.5-0.6-0.7-1c-0.5-1-0.3-1.7,0.7-2.1c0.8-0.4,1.1-0.8,0.7-1.7c-0.2-0.6-0.4-1.3-0.6-1.9c-0.3-1.1-0.1-1.5,0.9-2
			c1.1-0.5,2.2-1,3.2-1.5c1.5-0.8,1.5-0.9,0.6-2.3c-1.9-3.1-3.8-6.1-5.7-9.2c-0.7-1.1-0.8-2.3-0.3-3.6c0.8-2.6,0.4-5.1-0.1-7.7
			c-1.1-5.7-3.4-10.7-7.6-14.8C328.9,369.7,326.8,368.2,324.3,367L324.3,367z M324.3,378.8c0-0.9-0.8-1.6-1.7-1.6
			c-0.8,0-1.6,0.8-1.6,1.6c0,0.8,0.8,1.6,1.7,1.6C323.5,380.5,324.3,379.7,324.3,378.8L324.3,378.8z"/>
		
			<linearGradient id="SVGID_00000092451028404630549140000003334765303097933738_" gradientUnits="userSpaceOnUse" x1="347.0406" y1="75.1372" x2="306.8607" y2="75.1372" gradientTransform="matrix(1 0 0 -1 0 458)">
			<stop  offset="0" style="stop-color:#233069"/>
			<stop  offset="1" style="stop-color:#921A1D"/>
		</linearGradient>
		<path style="fill:url(#SVGID_00000092451028404630549140000003334765303097933738_);" d="M309.5,361.5h2.7c0,0.4,0.1,0.8,0.1,1.2
			c0,6.4,0,12.7,0,19c0,1.7,0.5,2.1,2.2,1.9c1.8-0.3,3.5,0.6,4.2,2.4c0.4,1.1,0.7,2.3,0.8,3.5c0.1,1.7,0.1,3.5,0,5.2
			c0,0.6,0.2,1,0.7,1.3c1.9,1,2.7,3,2.2,5s-2.1,3.3-4.2,3.3s-3.8-1.2-4.3-3.2c-0.6-2,0.3-4.1,2.2-5.1c0.5-0.3,0.7-0.6,0.7-1.2
			c0-1.7,0-3.4,0-5c0-0.6-0.1-1.1-0.2-1.7c-0.3-1.4-0.8-1.7-2.2-1.6c-2.9,0.3-4.8-1.5-4.8-4.4c0-6.6,0-13.1,0-19.7
			C309.4,362.1,309.4,361.8,309.5,361.5L309.5,361.5z M318,398.3c-0.9,0-1.6,0.8-1.6,1.7s0.8,1.6,1.7,1.5c0.8,0,1.6-0.8,1.6-1.6
			C319.7,399,318.9,398.2,318,398.3z"/>
		
			<linearGradient id="SVGID_00000013872349139900048520000001464573956086084996_" gradientUnits="userSpaceOnUse" x1="347.0406" y1="79.1415" x2="306.8607" y2="79.1415" gradientTransform="matrix(1 0 0 -1 0 458)">
			<stop  offset="0" style="stop-color:#233069"/>
			<stop  offset="1" style="stop-color:#921A1D"/>
		</linearGradient>
		<path style="fill:url(#SVGID_00000013872349139900048520000001464573956086084996_);" d="M324.3,378.8c0,0.9-0.8,1.7-1.6,1.7
			c-0.8,0-1.7-0.8-1.7-1.6c0-0.8,0.8-1.6,1.6-1.6C323.4,377.2,324.2,378,324.3,378.8L324.3,378.8z"/>
		
			<linearGradient id="SVGID_00000179639231136099032370000013595470766728140444_" gradientUnits="userSpaceOnUse" x1="347.0406" y1="58.1372" x2="306.8607" y2="58.1372" gradientTransform="matrix(1 0 0 -1 0 458)">
			<stop  offset="0" style="stop-color:#233069"/>
			<stop  offset="1" style="stop-color:#921A1D"/>
		</linearGradient>
		<path style="fill:url(#SVGID_00000179639231136099032370000013595470766728140444_);" d="M318,398.3c0.9,0,1.7,0.8,1.7,1.6
			c0,0.8-0.7,1.6-1.6,1.6s-1.7-0.7-1.7-1.5C316.4,399.1,317.2,398.3,318,398.3z"/>
	</g>
	<g>
		<g>
			
				<linearGradient id="SVGID_00000145038234047145880950000005091382532892143531_" gradientUnits="userSpaceOnUse" x1="246.4537" y1="45.2975" x2="305.2437" y2="46.5775" gradientTransform="matrix(1 0 0 -1 0 458)">
				<stop  offset="0" style="stop-color:#233069"/>
				<stop  offset="1" style="stop-color:#921A1D"/>
			</linearGradient>
			<path style="fill:url(#SVGID_00000145038234047145880950000005091382532892143531_);" d="M264.7,384.7
				c-4.1,13.9-4.3,27.8-1.1,41.7c1.2,5.1,5.1,9.1,10.1,10.5l0.2,0.1c3.3,0.9,6.3,2.4,9.1,4.4l2.6,2c1.4,1.1,3.2,1.7,5,1.7
				c0.1,0,0.2,0,0.3,0l1.8-0.2c0.9-0.1,1.7-0.5,2.4-1.2c0.6-0.5,1.4-0.8,2.2-0.6l6.4,3.8c0.6,0.1,1.1-0.3,1.1-0.9v-69.3h-29.2
				C270.5,376.5,266.1,379.9,264.7,384.7L264.7,384.7z"/>
			
				<linearGradient id="SVGID_00000029761157998034013470000003679917868543982492_" gradientUnits="userSpaceOnUse" x1="246.3192" y1="51.7167" x2="305.0992" y2="52.9967" gradientTransform="matrix(1 0 0 -1 0 458)">
				<stop  offset="0" style="stop-color:#233069"/>
				<stop  offset="1" style="stop-color:#921A1D"/>
			</linearGradient>
			<path style="fill:url(#SVGID_00000029761157998034013470000003679917868543982492_);" d="M264,377.7c-11.8,0-16.3,3-16.3,8.3
				l1.5,40.5c0,8.9,13,7.7,13,7.7C255.3,414.4,256.3,392.4,264,377.7z"/>
			
				<linearGradient id="SVGID_00000089559326300686802190000014289395174561281718_" gradientUnits="userSpaceOnUse" x1="245.4911" y1="89.4728" x2="304.2811" y2="90.7428" gradientTransform="matrix(1 0 0 -1 0 458)">
				<stop  offset="0" style="stop-color:#233069"/>
				<stop  offset="1" style="stop-color:#921A1D"/>
			</linearGradient>
			<path style="fill:url(#SVGID_00000089559326300686802190000014289395174561281718_);" d="M300,360.8c-5,0.5-4.1,0-15.9,3.1
				c-12.9,3.4-14.6,10-14.6,10h35.3v-10.3C304.8,361.8,302.5,360.5,300,360.8L300,360.8z"/>
		</g>
		<circle class="st8" cx="289.5" cy="393.1" r="8.2"/>
		<circle class="st9" cx="289.5" cy="393.1" r="4.3"/>
	</g>
</g>
<g>
	<path class="st9" d="M215.9,481.9c-1.3,0-1.9-0.5-2.8-1.5l-9.5-10.2V482h-4.8v-18.4h3.5c1.5,0,2.2,0.4,3,1.4l8.7,9.4v-10.8h4.8
		v16.5c0,1.2-0.6,1.9-1.8,1.9L215.9,481.9L215.9,481.9z"/>
	<path class="st9" d="M235.3,481.9l-1.5-2.8h-8.6l2.1-3.9h4.4l-3.1-5.9l-6.7,12.7h-5.4l9.4-17c0.5-0.9,1.2-1.4,2.2-1.4h1.1
		c1,0,1.7,0.5,2.2,1.4l9.4,17L235.3,481.9L235.3,481.9z"/>
	<path class="st9" d="M247.7,481.9c-5.6,0-9.7-3.7-9.7-9.2s4.1-9.2,9.7-9.2h2.7c5.6,0,9.7,3.7,9.7,9.2s-4.1,9.2-9.7,9.2H247.7z
		 M250.7,477.1c2.6,0,4.4-1.8,4.4-4.4c0-2.7-1.9-4.5-4.4-4.5h-3.3c-2.6,0-4.5,1.8-4.5,4.5c0,2.7,1.9,4.4,4.5,4.4H250.7z"/>
	<g>
		
			<linearGradient id="SVGID_00000057857805489158707330000015818036953058392730_" gradientUnits="userSpaceOnUse" x1="139.3206" y1="-608.6227" x2="298.4106" y2="-608.6227" gradientTransform="matrix(1 0 0 -1 116.18 -136.06)">
			<stop  offset="0" style="stop-color:#233069"/>
			<stop  offset="1" style="stop-color:#921A1D"/>
		</linearGradient>
		<path style="fill:url(#SVGID_00000057857805489158707330000015818036953058392730_);" d="M360.9,463.5h-2.1
			c-1.2,0-1.9,0.6-2.3,1.8l-3.3,11l-3.3-11c-0.4-1.2-1.2-1.8-2.3-1.8h-2.1c-1.2,0-2.1,0.6-2.4,2.1l-2.6,11.5h-15v-8.9h12.7v-4.7h-15
			h-2.6h-27h-0.1H281v13.1l-6.5-11.8c-0.5-0.9-1.2-1.4-2.2-1.4h-1.1c-1,0-1.7,0.5-2.2,1.4l-9.4,17h5.4l6.7-12.7l3.1,5.9h-4.4
			l-2.1,3.9h8.6l1.5,2.8h2.5h2.9h2v-13.6h7.6h0.1c1.4,0,2.3,0.9,2.3,2.3c0,1.4-1,2.3-2.3,2.3h-6.3v4.3h4.3l3.7,4.7h6.4l-4.6-5.4
			c2.3-1.1,3.8-3.3,3.8-6.1c0-0.8-0.1-1.5-0.3-2.2h6.3v13.6h4.9V468h8.9v13.6h18.9h3.5h1.4l2.7-12l3.2,10.2c0.3,1.2,1.1,1.8,2.3,1.8
			h1.5c1.2,0,2-0.6,2.3-1.8l3.2-10l2.7,11.8h4.9l-3.8-16.3C363,464.1,362.1,463.5,360.9,463.5L360.9,463.5z"/>
		
			<linearGradient id="SVGID_00000021822925563485031370000001932752247464561059_" gradientUnits="userSpaceOnUse" x1="139.3206" y1="-608.6728" x2="298.4106" y2="-608.6728" gradientTransform="matrix(1 0 0 -1 116.18 -136.06)">
			<stop  offset="0" style="stop-color:#233069"/>
			<stop  offset="1" style="stop-color:#921A1D"/>
		</linearGradient>
		
			<rect x="327" y="470.7" style="fill:url(#SVGID_00000021822925563485031370000001932752247464561059_);" width="10.8" height="3.9"/>
		
			<linearGradient id="SVGID_00000063615596795610044040000015289694920987079593_" gradientUnits="userSpaceOnUse" x1="139.3206" y1="-608.7228" x2="298.4106" y2="-608.7228" gradientTransform="matrix(1 0 0 -1 116.18 -136.06)">
			<stop  offset="0" style="stop-color:#233069"/>
			<stop  offset="1" style="stop-color:#921A1D"/>
		</linearGradient>
		
			<rect x="368" y="463.5" style="fill:url(#SVGID_00000063615596795610044040000015289694920987079593_);" width="4.9" height="18.4"/>
		
			<linearGradient id="SVGID_00000152261440503559614330000012019175012965265280_" gradientUnits="userSpaceOnUse" x1="175.4106" y1="-608.6727" x2="279.7606" y2="-608.6727" gradientTransform="matrix(1 0 0 -1 116.18 -136.06)">
			<stop  offset="0" style="stop-color:#233069"/>
			<stop  offset="1" style="stop-color:#921A1D"/>
		</linearGradient>
		<path style="fill:url(#SVGID_00000152261440503559614330000012019175012965265280_);" d="M371.1,477.1h0.8h18.6
			c0.7,0,1.2-0.5,1.2-1.2c0-0.7-0.5-1.3-1.2-1.3h-8.1c-3.4,0-5.9-2.3-5.9-5.5c0-3.3,2.5-5.6,5.9-5.6h13.9v4.7h-13.7
			c-0.7,0-1.2,0.4-1.2,1.2c0,0.8,0.5,1.2,1.2,1.2h8.1c3.4,0,5.9,2.3,5.9,5.6c0,3.4-2.5,5.6-5.9,5.6h-17.5h-0.7h-0.3
			c-1.3,0-1.9-0.5-2.8-1.5L371.1,477.1L371.1,477.1z"/>
	</g>
</g>
</svg>
