<?xml version="1.0" encoding="utf-8"?>
<!-- Generator: Adobe Illustrator 26.4.1, SVG Export Plug-In . SVG Version: 6.00 Build 0)  -->
<svg version="1.1" id="Layer_1" xmlns="http://www.w3.org/2000/svg" xmlns:xlink="http://www.w3.org/1999/xlink" x="0px" y="0px"
	 width="595.3px" height="841.9px" viewBox="0 0 595.3 841.9" style="enable-background:new 0 0 595.3 841.9;" xml:space="preserve"
	>
<style type="text/css">
	.st0{fill:url(#SVGID_1_);}
	.st1{fill:url(#SVGID_00000095309092619152521260000013636388294955221389_);}
	.st2{fill:url(#SVGID_00000114072248591833697190000011076810040479887497_);}
	.st3{fill:url(#SVGID_00000183245679970543158570000007399181240584463489_);}
	.st4{fill:url(#SVGID_00000044152804066122307830000011953892445418596799_);}
	.st5{fill:#233069;}
	.st6{fill:url(#SVGID_00000067223433922227268940000005541467753608357031_);}
	.st7{fill:url(#SVGID_00000171714574042406936640000015881725446092043171_);}
	.st8{fill:url(#SVGID_00000070090088432163768280000005453904222580898978_);}
	.st9{fill:url(#SVGID_00000041286008282180480760000002943374921078141358_);}
	.st10{fill:url(#SVGID_00000105400461345563883120000008571349700340683914_);}
	.st11{fill:url(#SVGID_00000050661400666733432760000015080239823300232066_);}
	.st12{fill:url(#SVGID_00000147207139313767931190000013439229773266513813_);}
	.st13{fill:#FFFFFF;}
</style>
<g>
	
		<linearGradient id="SVGID_1_" gradientUnits="userSpaceOnUse" x1="387.6326" y1="37.632" x2="325.3527" y2="37.632" gradientTransform="matrix(1 0 0 -1 0 458)">
		<stop  offset="0" style="stop-color:#233069"/>
		<stop  offset="1" style="stop-color:#921A1D"/>
	</linearGradient>
	<path class="st0" d="M352.3,362.9c3.9,1.9,7.1,4.2,9.9,7c6.5,6.3,10.2,14.1,11.8,22.9c0.8,4,1.4,8,0.1,11.9c-0.7,2-0.6,3.9,0.5,5.6
		c2.9,4.8,5.8,9.5,8.8,14.3c1.4,2.2,1.4,2.4-1,3.5c-1.7,0.8-3.4,1.6-5,2.4c-1.6,0.8-1.8,1.4-1.4,3.1c0.3,1,0.5,2,0.9,3
		c0.5,1.3,0.1,2.1-1.2,2.6c-1.5,0.7-1.8,1.8-1,3.2c0.3,0.6,0.6,1.1,1.1,1.6c0.8,0.7,0.8,1.3,0,2.1c-1.7,1.8-2.2,3.9-1.6,6.3
		c0.2,1,0.4,1.9,0.6,2.9c0.5,3.3-0.9,5.6-4.2,6.4c-1.3,0.3-2.6,0.4-3.9,0.6c-4.3,0.7-8.6,1.2-12.8,2.1c-3.2,0.7-5.4,3-5.7,6.4
		c-0.4,4.6-0.6,9.2-0.9,13.8c-0.1,1.1,0.5,1.7,1.7,1.8c1.6,0.1,2.2-0.5,2.3-2.3c0.1-3.2,0.2-6.4,0.3-9.6c0.1-4.4,2.1-6.8,6.4-7.3
		c3.9-0.5,7.8-0.8,11.7-1.2c5.3-0.5,8.6-3.6,9.1-8.9c0.2-1.5-0.2-3.1-0.4-4.7c-0.2-1.4-0.3-2.8,0.8-4c1.7-1.9,2.6-4,0.9-5.8
		c0.4-1.7,1-2.9,1.1-4.2c0.1-1.1-0.2-2.2-0.5-3.3c-0.2-0.9,0-1.5,0.9-1.9c1.1-0.5,2.1-1,3.1-1.6c4.4-2.6,4.9-4.6,2.2-9
		c-2.8-4.4-5.5-8.8-8.4-13.2c-1-1.5-1.1-2.9-0.4-4.6c0.4-1.2,0.8-2.6,0.7-3.9c-0.2-3.4-0.4-6.9-1.2-10.2
		c-3.6-16.2-12.8-27.8-28.5-33.7c-0.5-0.2-1.1-0.3-1.9-0.5v1.8c0,4.6-0.1,9.2,0,13.9c0,1.6-0.3,2.7-1.8,3.7
		c-3.2,2.1-3.4,7.1-0.8,9.9c2.7,3,7.3,3,10.1,0.1c2.7-2.8,2.5-7.8-0.6-10c-1.8-1.2-2.1-2.5-2-4.4c0.1-2.3,0-4.6,0-6.9
		C352.2,364.3,352.3,363.8,352.3,362.9L352.3,362.9z M329.4,354.3c0,0.6-0.1,1-0.1,1.5c0,10.2,0,20.4,0,30.5c0,4.5,3,7.2,7.5,6.8
		c2.2-0.2,2.9,0.2,3.4,2.4c0.2,0.9,0.3,1.8,0.3,2.6c0,2.6,0,5.2,0,7.8c0,0.9-0.3,1.4-1.1,1.8c-2.9,1.6-4.2,4.8-3.3,7.9
		c0.8,3,3.5,5,6.7,5s5.7-2,6.5-5.1s-0.5-6.2-3.4-7.7c-0.9-0.5-1.1-1-1.1-2c0-2.7,0.2-5.4,0-8.1c-0.1-1.8-0.5-3.7-1.2-5.4
		c-1.1-2.7-3.8-4.1-6.6-3.6c-2.6,0.4-3.4-0.3-3.4-2.9c0-9.8,0-19.7,0-29.5c0-0.6-0.1-1.2-0.1-1.9L329.4,354.3L329.4,354.3z"/>
	
		<linearGradient id="SVGID_00000014613250259420078060000009889415091359285908_" gradientUnits="userSpaceOnUse" x1="387.6326" y1="36.332" x2="325.3527" y2="36.332" gradientTransform="matrix(1 0 0 -1 0 458)">
		<stop  offset="0" style="stop-color:#233069"/>
		<stop  offset="1" style="stop-color:#921A1D"/>
	</linearGradient>
	<path style="fill:url(#SVGID_00000014613250259420078060000009889415091359285908_);" d="M352.3,362.9c0,0.8-0.1,1.4-0.1,1.9
		c0,2.3,0.1,4.6,0,6.9c-0.1,1.9,0.3,3.2,2,4.4c3.1,2.1,3.2,7.2,0.6,10c-2.8,2.9-7.4,2.8-10.1-0.1c-2.6-2.9-2.3-7.8,0.8-9.9
		c1.5-1,1.8-2.1,1.8-3.7c-0.1-4.6,0-9.2,0-13.9v-1.8c0.8,0.2,1.3,0.3,1.9,0.5c15.7,5.9,24.9,17.5,28.5,33.7
		c0.7,3.3,0.9,6.8,1.2,10.2c0.1,1.3-0.3,2.6-0.7,3.9c-0.6,1.7-0.5,3.1,0.4,4.6c2.8,4.4,5.6,8.8,8.4,13.2c2.7,4.4,2.2,6.4-2.2,9
		c-1,0.6-2.1,1.2-3.1,1.6c-0.9,0.4-1.1,1-0.9,1.9c0.2,1.1,0.6,2.2,0.5,3.3c-0.1,1.3-0.6,2.5-1.1,4.2c1.7,1.9,0.8,3.9-0.9,5.8
		c-1.1,1.2-1,2.6-0.8,4c0.2,1.5,0.5,3.1,0.4,4.7c-0.5,5.2-3.8,8.4-9.1,8.9c-3.9,0.4-7.8,0.7-11.7,1.2c-4.4,0.6-6.3,2.9-6.4,7.3
		c-0.1,3.2-0.2,6.4-0.3,9.6c-0.1,1.8-0.7,2.4-2.3,2.3c-1.1-0.1-1.7-0.7-1.7-1.8c0.3-4.6,0.4-9.2,0.9-13.8c0.3-3.4,2.5-5.6,5.7-6.4
		c4.2-1,8.6-1.4,12.8-2.1c1.3-0.2,2.6-0.3,3.9-0.6c3.2-0.9,4.6-3.1,4.2-6.4c-0.1-1-0.3-1.9-0.6-2.9c-0.6-2.4-0.1-4.5,1.6-6.3
		c0.8-0.8,0.8-1.3,0-2.1c-0.4-0.4-0.8-1-1.1-1.6c-0.8-1.5-0.5-2.6,1-3.2c1.3-0.6,1.7-1.3,1.2-2.6c-0.4-1-0.6-2-0.9-3
		c-0.4-1.6-0.2-2.3,1.4-3.1c1.7-0.8,3.4-1.6,5-2.4c2.4-1.2,2.4-1.4,1-3.5c-3-4.7-5.9-9.5-8.8-14.3c-1.1-1.8-1.2-3.6-0.5-5.6
		c1.3-4,0.6-8-0.1-11.9c-1.7-8.8-5.3-16.6-11.8-22.9C359.4,367.1,356.2,364.8,352.3,362.9L352.3,362.9z M352.3,381.2
		c0-1.3-1.3-2.6-2.6-2.5c-1.2,0.1-2.4,1.3-2.4,2.5c0,1.3,1.3,2.5,2.6,2.5C351.2,383.8,352.4,382.6,352.3,381.2L352.3,381.2z"/>
	
		<linearGradient id="SVGID_00000102510479346739597610000011307671467894378369_" gradientUnits="userSpaceOnUse" x1="387.6326" y1="70.5872" x2="325.3527" y2="70.5872" gradientTransform="matrix(1 0 0 -1 0 458)">
		<stop  offset="0" style="stop-color:#233069"/>
		<stop  offset="1" style="stop-color:#921A1D"/>
	</linearGradient>
	<path style="fill:url(#SVGID_00000102510479346739597610000011307671467894378369_);" d="M329.4,354.3h4.2c0,0.7,0.1,1.3,0.1,1.9
		c0,9.8,0,19.7,0,29.5c0,2.7,0.8,3.3,3.4,2.9c2.8-0.4,5.4,0.9,6.6,3.6c0.7,1.7,1.1,3.6,1.2,5.4c0.2,2.7,0.1,5.4,0,8.1
		c0,0.9,0.2,1.5,1.1,2c2.9,1.5,4.2,4.7,3.4,7.7c-0.8,3.1-3.3,5.1-6.5,5.1s-5.9-1.9-6.7-5c-0.9-3.2,0.4-6.3,3.3-7.9
		c0.8-0.4,1.1-0.9,1.1-1.8c-0.1-2.6,0-5.2,0-7.8c0-0.9-0.1-1.8-0.3-2.6c-0.5-2.2-1.2-2.6-3.4-2.4c-4.5,0.4-7.5-2.3-7.5-6.8
		c0-10.2,0-20.4,0-30.5C329.3,355.3,329.4,354.9,329.4,354.3L329.4,354.3z M342.7,411.3c-1.3,0-2.5,1.3-2.5,2.6
		c0.1,1.4,1.2,2.5,2.6,2.4c1.3,0,2.4-1.2,2.4-2.5C345.2,412.5,344,411.3,342.7,411.3L342.7,411.3z"/>
	
		<linearGradient id="SVGID_00000107586880215700970390000014374462788302748035_" gradientUnits="userSpaceOnUse" x1="387.6326" y1="76.6902" x2="325.3527" y2="76.6902" gradientTransform="matrix(1 0 0 -1 0 458)">
		<stop  offset="0" style="stop-color:#233069"/>
		<stop  offset="1" style="stop-color:#921A1D"/>
	</linearGradient>
	<path style="fill:url(#SVGID_00000107586880215700970390000014374462788302748035_);" d="M352.3,381.2c0,1.3-1.2,2.6-2.5,2.6
		s-2.6-1.3-2.6-2.5c0-1.2,1.2-2.5,2.4-2.5C351,378.7,352.3,379.9,352.3,381.2L352.3,381.2z"/>
	
		<linearGradient id="SVGID_00000166662616909849021680000002585898838434279334_" gradientUnits="userSpaceOnUse" x1="387.6326" y1="44.1872" x2="325.3527" y2="44.1872" gradientTransform="matrix(1 0 0 -1 0 458)">
		<stop  offset="0" style="stop-color:#233069"/>
		<stop  offset="1" style="stop-color:#921A1D"/>
	</linearGradient>
	<path style="fill:url(#SVGID_00000166662616909849021680000002585898838434279334_);" d="M342.7,411.3c1.3,0,2.6,1.2,2.6,2.5
		c0,1.3-1.1,2.4-2.4,2.5c-1.4,0-2.6-1-2.6-2.4C340.2,412.6,341.4,411.3,342.7,411.3L342.7,411.3z"/>
</g>
<g>
	<path class="st5" d="M322.9,477c0,0.9-0.3,1.3-1.1,1.9l-6.9,6.4h8v3.3h-12.5v-2.4c0-1,0.3-1.5,0.9-2l6.3-5.9h-7.3v-3.2h11.2
		c0.8,0,1.3,0.4,1.3,1.2L322.9,477L322.9,477z"/>
	<path class="st5" d="M322.9,463.8l-1.9,1v5.8l-2.7-1.4v-3l-4,2.1l8.6,4.6v3.7l-11.5-6.4c-0.6-0.3-0.9-0.8-0.9-1.5v-0.8
		c0-0.7,0.3-1.2,0.9-1.5l11.5-6.4L322.9,463.8L322.9,463.8z"/>
	<path class="st5" d="M322.9,455.4c0,3.8-2.5,6.6-6.2,6.6s-6.2-2.8-6.2-6.6v-1.8c0-3.8,2.5-6.6,6.2-6.6s6.2,2.8,6.2,6.6V455.4z
		 M319.7,453.3c0-1.7-1.2-3-3-3s-3,1.3-3,3v2.3c0,1.7,1.2,3,3,3s3-1.3,3-3V453.3z"/>
	<g>
		
			<linearGradient id="SVGID_00000119111675482376684420000007282323213068340919_" gradientUnits="userSpaceOnUse" x1="-773.9319" y1="-531.3909" x2="-665.9719" y2="-531.3909" gradientTransform="matrix(6.123234e-17 -1 -1 -6.123234e-17 -214.81 -323.84)">
			<stop  offset="0" style="stop-color:#233069"/>
			<stop  offset="1" style="stop-color:#921A1D"/>
		</linearGradient>
		<path style="fill:url(#SVGID_00000119111675482376684420000007282323213068340919_);" d="M310.4,378.6v1.4c0,0.8,0.4,1.3,1.2,1.6
			l7.5,2.2l-7.5,2.3c-0.8,0.2-1.2,0.8-1.2,1.6v1.4c0,0.8,0.4,1.4,1.4,1.6l7.8,1.8v10.2h-6v-8.6h-3.2v10.2v1.8v18.2v0.1v8.5h8.9
			l-8,4.4c-0.6,0.4-0.9,0.8-0.9,1.5v0.8c0,0.6,0.3,1.1,0.9,1.5l11.5,6.4v-3.7l-8.6-4.6l4-2.1v3l2.7,1.4v-5.9l1.9-1v-1.7v-2v-1.4
			h-9.3v-5.2l0,0c0-0.9,0.6-1.6,1.6-1.6s1.6,0.6,1.6,1.6v4.3h2.9v-3l3.2-2.5v-4.4l-3.7,3.1c-0.8-1.5-2.2-2.5-4.1-2.5
			c-0.5,0-1,0.1-1.5,0.2v-4.3h9.3v-3.4h-9.3v-6h9.3V393v-2.4v-1l-8.2-1.8l7-2.2c0.8-0.2,1.2-0.8,1.2-1.6v-1c0-0.8-0.4-1.3-1.2-1.6
			l-6.8-2.2l8-1.8v-3.3l-11,2.5C310.8,377.1,310.4,377.7,310.4,378.6L310.4,378.6z"/>
		
			<linearGradient id="SVGID_00000129192127895442994630000004100738200832956822_" gradientUnits="userSpaceOnUse" x1="-773.9319" y1="-531.4408" x2="-665.9719" y2="-531.4408" gradientTransform="matrix(6.123234e-17 -1 -1 -6.123234e-17 -214.81 -323.84)">
			<stop  offset="0" style="stop-color:#233069"/>
			<stop  offset="1" style="stop-color:#921A1D"/>
		</linearGradient>
		
			<rect x="315.3" y="394.2" style="fill:url(#SVGID_00000129192127895442994630000004100738200832956822_);" width="2.7" height="7.4"/>
		
			<linearGradient id="SVGID_00000152222979750089275160000004020200206610748847_" gradientUnits="userSpaceOnUse" x1="-773.9319" y1="-531.4409" x2="-665.9719" y2="-531.4409" gradientTransform="matrix(6.123234e-17 -1 -1 -6.123234e-17 -214.81 -323.84)">
			<stop  offset="0" style="stop-color:#233069"/>
			<stop  offset="1" style="stop-color:#921A1D"/>
		</linearGradient>
		
			<rect x="310.4" y="370.4" style="fill:url(#SVGID_00000152222979750089275160000004020200206610748847_);" width="12.5" height="3.4"/>
		
			<linearGradient id="SVGID_00000003819599556314293280000012224994033989465011_" gradientUnits="userSpaceOnUse" x1="-749.442" y1="-531.3908" x2="-678.6219" y2="-531.3908" gradientTransform="matrix(6.123234e-17 -1 -1 -6.123234e-17 -214.81 -323.84)">
			<stop  offset="0" style="stop-color:#233069"/>
			<stop  offset="1" style="stop-color:#921A1D"/>
		</linearGradient>
		<path style="fill:url(#SVGID_00000003819599556314293280000012224994033989465011_);" d="M319.7,371.6v-0.5v-12.6
			c0-0.5-0.3-0.8-0.8-0.8s-0.9,0.4-0.9,0.8v5.5c0,2.3-1.5,4-3.8,4s-3.8-1.7-3.8-4v-9.5h3.2v9.3c0,0.5,0.3,0.8,0.8,0.8
			s0.8-0.3,0.8-0.8v-5.5c0-2.3,1.6-4,3.8-4s3.8,1.7,3.8,4v11.9v0.5v0.2c0,0.9-0.3,1.3-1.1,1.9L319.7,371.6L319.7,371.6z"/>
	</g>
</g>
<g>
	
		<linearGradient id="SVGID_00000024718921288898337140000013473114627238372498_" gradientUnits="userSpaceOnUse" x1="203.533" y1="22.178" x2="300.2329" y2="24.278" gradientTransform="matrix(1 0 0 -1 0 458)">
		<stop  offset="0" style="stop-color:#233069"/>
		<stop  offset="1" style="stop-color:#921A1D"/>
	</linearGradient>
	<path style="fill:url(#SVGID_00000024718921288898337140000013473114627238372498_);" d="M233.5,389.9c-6.8,22.9-7,45.7-1.8,68.5
		c1.9,8.4,8.4,15,16.7,17.2l0.4,0.1c5.4,1.5,10.4,3.9,14.9,7.3l4.3,3.2c2.4,1.8,5.2,2.8,8.2,2.8c0.2,0,0.3,0,0.5,0l2.9-0.3
		c1.5-0.1,2.8-0.9,3.9-1.9c0.9-0.9,2.3-1.3,3.6-1l10.5,6.2c0.9,0.2,1.9-0.5,1.9-1.5v-114h-48.1C243.1,376.5,235.9,381.9,233.5,389.9
		L233.5,389.9z"/>
	
		<linearGradient id="SVGID_00000022547990934031883690000013769267068857097363_" gradientUnits="userSpaceOnUse" x1="203.313" y1="32.3764" x2="300.0129" y2="34.4765" gradientTransform="matrix(1 0 0 -1 0 458)">
		<stop  offset="0" style="stop-color:#233069"/>
		<stop  offset="1" style="stop-color:#921A1D"/>
	</linearGradient>
	<path style="fill:url(#SVGID_00000022547990934031883690000013769267068857097363_);" d="M232.5,378.5c-19.4,0-26.8,4.9-26.8,13.7
		l2.5,66.6c-0.1,14.7,21.3,12.7,21.3,12.7C218,438.8,219.7,402.5,232.5,378.5L232.5,378.5z"/>
	
		<linearGradient id="SVGID_00000138548560902887078760000001344660854144499378_" gradientUnits="userSpaceOnUse" x1="201.9634" y1="94.62" x2="298.6633" y2="96.7198" gradientTransform="matrix(1 0 0 -1 0 458)">
		<stop  offset="0" style="stop-color:#233069"/>
		<stop  offset="1" style="stop-color:#921A1D"/>
	</linearGradient>
	<path style="fill:url(#SVGID_00000138548560902887078760000001344660854144499378_);" d="M291.6,350.6c-8.3,0.8-6.7-0.1-26.1,5.1
		c-21.2,5.6-24,16.4-24,16.4h58v-17C299.6,352.3,295.8,350.2,291.6,350.6L291.6,350.6z"/>
</g>
<circle class="st13" cx="274.3" cy="403.7" r="13.4"/>
<circle class="st5" cx="274.3" cy="403.7" r="7.1"/>
</svg>
